<?xml version="1.0" encoding="UTF-8" standalone="no"?>
<!DOCTYPE svg PUBLIC "-//W3C//DTD SVG 1.1//EN" "http://www.w3.org/Graphics/SVG/1.1/DTD/svg11.dtd">
<svg width="100%" height="100%" viewBox="0 0 1890 1890" version="1.1" xmlns="http://www.w3.org/2000/svg" xmlns:xlink="http://www.w3.org/1999/xlink" xml:space="preserve" xmlns:serif="http://www.serif.com/" style="fill-rule:evenodd;clip-rule:evenodd;stroke-linejoin:round;stroke-miterlimit:1.41421;">
    <g transform="matrix(1.33333,0,0,1.33333,0,0)">
        <g transform="matrix(4.81753,0,0,4.81753,-1464.02,-1617.19)">
            <g transform="matrix(1,0,0,1,-0.49489,10.5582)">
                <path d="M385.672,447.57C385.673,415.704 411.543,389.834 443.408,389.834C475.273,389.834 501.144,415.704 501.144,447.57L501.144,554.627L385.672,554.627L385.672,447.57Z" style="fill:rgb(201,178,152);"/>
            </g>
            <g transform="matrix(0.900106,0,0,0.90082,44.2938,58.3525)">
                <path d="M385.672,447.57C385.673,415.704 411.543,389.834 443.408,389.834C475.273,389.834 501.144,415.704 501.144,447.57L501.144,554.627L385.672,554.627L385.672,447.57Z" style="fill:rgb(144,195,230);"/>
            </g>
            <path d="M495.377,470.846C495.376,438.981 469.506,413.11 437.641,413.11C430.053,413.11 422.806,414.577 416.166,417.243C424.089,412.348 433.422,409.523 443.408,409.523C472.09,409.523 495.376,432.827 495.377,461.532L495.377,470.846Z" style="fill:rgb(117,159,188);"/>
            <path d="M480.177,424.792L480.207,424.822L480.331,424.946L480.352,424.968L480.495,425.113L480.517,425.136L480.641,425.263L480.667,425.29L480.811,425.439L480.955,425.589L480.975,425.61L481.119,425.76L481.271,425.922C481.271,425.922 481.952,427.102 481.952,427.102L439.395,451.673L437.852,449L480.032,424.647L480.177,424.792Z" style="fill:rgb(117,159,188);"/>
            <path d="M494.793,453.718C495.078,455.611 495.262,457.537 495.337,459.491L391.479,459.491C391.555,457.537 391.738,455.611 392.024,453.718L494.793,453.718Z" style="fill:rgb(117,159,188);"/>
            <rect x="391.44" y="488.962" width="103.937" height="5.773" style="fill: rgb(117,159,188);"/>
            <rect x="391.44" y="529.513" width="103.937" height="5.773" style="fill:rgb(117,159,188);"/>
            <rect x="432.396" y="451.673" width="5.773" height="106.299" style="fill:rgb(117,159,188);"/>
            <path d="M494.919,454.606C495.221,456.872 495.377,459.184 495.377,461.532L495.377,557.972L489.604,557.972L489.604,454.606L494.919,454.606Z" style="fill:rgb(117,159,188);"/>
            <path d="M458.494,411.751C459.501,412.057 460.496,412.393 461.477,412.757L439.727,450.428L437.055,448.885L458.494,411.751Z" style="fill:rgb(117,159,188);"/>
            <path d="M440.938,409.58L440.938,451.673L437.852,451.673L437.852,409.817C438.872,409.708 439.901,409.629 440.938,409.58Z" style="fill:rgb(117,159,188);"/>
            <path d="M420.264,414.96L440.938,450.768L438.265,452.311L417.544,416.421C418.434,415.908 419.341,415.42 420.264,414.96Z" style="fill:rgb(117,159,188);"/>
            <path d="M403.475,428.262L439.395,449L437.852,451.673L401.553,430.715C402.169,429.878 402.811,429.06 403.475,428.262Z" style="fill:rgb(117,159,188);"/>
            
            <g transform="matrix(1.02273,0,0,0.666744,-9.89636,149.55)">
                <rect x="391.44" y="448.755" width="103.937" height="8.658" style="fill:rgb(201,178,152);"/>
            </g>
            <g transform="matrix(1.02273,0,0,0.666744,-9.89636,184.543)">
                <rect x="391.44" y="448.755" width="103.937" height="8.658" style="fill:rgb(201,178,152);"/>
            </g>
            <g transform="matrix(1.02273,0,0,0.666744,-10.5724,224.616)">
                <rect x="391.44" y="448.755" width="103.937" height="8.658" style="fill:rgb(201,178,152);"/>
            </g>
            <g transform="matrix(6.2624e-17,-1.02273,0.666744,4.08263e-17,137.936,958.308)">
                <rect x="391.44" y="448.755" width="103.937" height="8.658" style="fill:rgb(201,178,152);"/>
            </g>
            
            <g transform="matrix(0.236398,-0.409454,0.308696,0.178225,208.963,530.427)">
                <rect x="391.44" y="448.755" width="103.937" height="8.658" style="fill:rgb(201,178,152);"/>
            </g>
            <g transform="matrix(8.32667e-17,-0.472797,0.356451,2.08167e-17,280.068,635.201)">
                <rect x="391.44" y="448.755" width="103.937" height="8.658" style="fill:rgb(201,178,152);"/>
            </g>
            <g transform="matrix(-0.236398,-0.409454,0.308696,-0.178225,394.034,690.386)">
                <rect x="391.44" y="448.755" width="103.937" height="8.658" style="fill:rgb(201,178,152);"/>
            </g>
            <g transform="matrix(-0.409454,-0.236398,0.178225,-0.308696,520.324,681.194)">
                <rect x="391.44" y="448.755" width="103.937" height="8.658" style="fill:rgb(201,178,152);"/>
            </g>
            <g transform="matrix(0.409454,-0.236398,0.178225,0.308696,199.771,404.137)">
                <rect x="391.44" y="448.755" width="103.937" height="8.658" style="fill:rgb(201,178,152);"/>
            </g>
        </g>
    </g>
</svg>
