<?xml version="1.0" encoding="UTF-8" standalone="no"?>
<!DOCTYPE svg PUBLIC "-//W3C//DTD SVG 1.1//EN" "http://www.w3.org/Graphics/SVG/1.1/DTD/svg11.dtd">
    <svg
      xmlns="http://www.w3.org/2000/svg"
      fillRule="evenodd"
      strokeLinejoin="round"
      strokeMiterlimit="1.414"
      clipRule="evenodd"
      viewBox="0 0 1890 1890"
    >
    <g transform="matrix(1.33333,0,0,1.33333,0,0)">
        <g transform="matrix(7.39384,0,0,6.31433,-1058.88,-5369.13)">
            <g transform="matrix(0.652398,0,0,0.755856,-97.993,17.2821)">
                <rect x="421.765" y="1152.38" width="181.04" height="196.24" style="fill:rgb(201,178,152);"/>
            </g>
            <g transform="matrix(0.587158,0,0,0.698163,-64.5717,89.5456)">
                <rect x="421.765" y="1152.38" width="181.04" height="196.24" style="fill:rgb(144,195,230);"/>
            </g>
            <g transform="matrix(0.135248,0,0,0.15837,143.211,850.308)">
                <rect x="1042.44" y="276.481" width="38.232" height="865.113" style="fill:rgb(72,102,122);"/>
            </g>
            <g transform="matrix(0.135248,0,0,0.15837,143.211,850.308)">
                <rect x="764.907" y="276.481" width="38.232" height="864.36" style="fill:rgb(72,102,122);"/>
            </g>
            <g transform="matrix(0.135248,0,0,0.15837,143.211,850.308)">
                <rect x="488.274" y="276.481" width="38.232" height="864.36" style="fill:rgb(72,102,122);"/>
            </g>
            <g transform="matrix(1,0,0,1.17096,-206.693,86.751)">
                <path d="M496.063,806.475L496.063,694.203L389.764,694.203L389.764,689.471L496.063,689.471L496.063,806.475Z" style="fill:rgb(73,103,123);"/>
            </g>
            <g transform="matrix(8.86059e-17,-1.44704,0.740754,4.53581e-17,-479.234,1275.3)">
                <rect x="199.425" y="894.094" width="3.793" height="137.008" style="fill:rgb(72,102,122);"/>
            </g>
            <g transform="matrix(1.36306,0,0,1.08263,-57.37,-79.5438)">
                <rect x="199.425" y="894.094" width="3.793" height="137.008" style="fill:rgb(201,178,152);"/>
            </g>
            <g transform="matrix(1.36306,0,0,1.08263,-20.5571,-79.5438)">
                <rect x="199.425" y="894.094" width="3.793" height="137.008" style="fill:rgb(201,178,152);"/>
            </g>
            <g transform="matrix(8.34632e-17,-1.36306,0.856798,5.24637e-17,-588.893,1253.88)">
                <rect x="199.425" y="894.094" width="3.793" height="137.008" style="fill:rgb(201,178,152);"/>
            </g>
        </g>
    </g>
</svg>
