<?xml version="1.0" encoding="UTF-8" standalone="no"?>
<!DOCTYPE svg PUBLIC "-//W3C//DTD SVG 1.1//EN" "http://www.w3.org/Graphics/SVG/1.1/DTD/svg11.dtd">
<svg width="100%" height="100%" viewBox="0 480 1890 1890" version="1.1" xmlns="http://www.w3.org/2000/svg" xmlns:xlink="http://www.w3.org/1999/xlink" xml:space="preserve" xmlns:serif="http://www.serif.com/" style="fill-rule:evenodd;clip-rule:evenodd;stroke-linejoin:round;stroke-miterlimit:1.41421;">
    <g transform="matrix(1.33333,0,0,1.33333,0,0)">
        <g transform="matrix(10.9632,0,0,10.9632,-2609.37,-5802.48)">
            <g transform="matrix(1,0,0,1,132.519,-201.674)">
                <g transform="matrix(1.41093,0,0,2.3583,-63.8354,-1508.92)">
                    <rect x="137.69" y="964.121" width="26.787" height="29.549" style="fill:rgb(201,178,152);"/>
                </g>
                <g transform="matrix(0.972155,0,0,0.881304,2.45687,-79.3968)">
                    <rect x="137.69" y="964.121" width="26.787" height="29.549" style="fill:rgb(144,195,230);"/>
                </g>
                <path d="M162.355,796.329L158.153,796.329L158.153,774.199L136.313,774.199L136.313,770.288L162.355,770.288L162.355,796.329Z" style="fill:rgb(85,118,140);"/>
                <g transform="matrix(0.972155,0,0,0.881304,2.45687,-47.1932)">
                    <rect x="137.69" y="964.121" width="26.787" height="29.549" style="fill:rgb(144,195,230);"/>
                </g>
                <g transform="matrix(1,0,0,1,0,32.2036)">
                    <path d="M162.355,796.329L158.153,796.329L158.153,774.199L136.313,774.199L136.313,770.288L162.355,770.288L162.355,796.329Z" style="fill:rgb(85,118,140);"/>
                </g>
            </g>
            <g transform="matrix(1,0,0,1,164.503,-201.674)">
                <g transform="matrix(1.41093,0,0,2.3583,-63.8354,-1508.92)">
                    <rect x="137.69" y="964.121" width="26.787" height="29.549" style="fill:rgb(201,178,152);"/>
                </g>
                <g transform="matrix(0.972155,0,0,0.881304,2.45687,-79.3968)">
                    <rect x="137.69" y="964.121" width="26.787" height="29.549" style="fill:rgb(144,195,230);"/>
                </g>
                <path d="M162.355,796.329L158.153,796.329L158.153,774.199L136.313,774.199L136.313,770.288L162.355,770.288L162.355,796.329Z" style="fill:rgb(85,118,140);"/>
                <g transform="matrix(0.972155,0,0,0.881304,2.45687,-47.1932)">
                    <rect x="137.69" y="964.121" width="26.787" height="29.549" style="fill:rgb(144,195,230);"/>
                </g>
                <g transform="matrix(1,0,0,1,0,32.2036)">
                    <path d="M162.355,796.329L158.153,796.329L158.153,774.199L136.313,774.199L136.313,770.288L162.355,770.288L162.355,796.329Z" style="fill:rgb(85,118,140);"/>
                </g>
            </g>
        </g>
    </g>
</svg>
